<svg width="1202" height="301" viewBox="0 0 1202 301" fill="none" xmlns="http://www.w3.org/2000/svg">
<path d="M154.856 0H0V125.897H154.856C172.266 125.897 187.927 118.81 199.388 107.437C210.761 96.063 217.848 80.315 217.848 62.9921C217.76 28.1715 189.676 0 154.856 0ZM152.931 114.611C124.409 114.611 101.312 91.5136 101.312 62.9921C101.312 34.4707 124.409 11.3736 152.931 11.3736C181.452 11.3736 204.549 34.4707 204.549 62.9921C204.549 91.4261 181.452 114.611 152.931 114.611Z" fill="#1D1D1B"/>
<path d="M194.576 145.582H0V300.087H194.576C215.923 300.087 235.258 291.426 249.169 277.428C263.167 263.43 271.828 244.182 271.828 222.835C271.828 180.14 237.27 145.582 194.576 145.582ZM192.651 287.752C156.78 287.752 127.647 258.705 127.647 222.835C127.647 186.964 156.78 157.83 192.651 157.83C228.521 157.83 257.568 186.964 257.568 222.835C257.568 258.705 228.521 287.752 192.651 287.752Z" fill="#1D1D1B"/>
<path d="M369.554 127.821V6.38666H429.396C440.857 6.38666 449.956 9.36129 456.605 15.3105C463.254 21.2598 466.667 28.6964 466.667 37.6203C466.667 46.5441 463.604 53.3683 457.48 58.0927C454.943 60.1049 451.968 61.5923 448.469 62.8171V63.692C452.756 64.6544 456.518 66.2292 459.755 68.4164C467.279 73.8407 471.041 82.1522 471.041 93.2633C471.041 103.587 467.366 111.898 459.93 118.373C452.493 124.847 442.082 127.996 428.521 127.996H369.554V127.821ZM389.501 55.818H428.521C434.033 55.818 438.32 54.4182 441.382 51.706C444.357 48.9063 445.932 45.0568 445.932 40.0699C445.932 35.6955 444.444 32.1084 441.382 29.4838C438.408 26.7716 434.121 25.4593 428.521 25.4593H389.501V55.818ZM389.501 108.749H427.646C442.695 108.749 450.219 102.975 450.219 91.426C450.219 79.8775 442.695 74.1032 427.646 74.1032H389.501V108.749Z" fill="black"/>
<path d="M509.274 6.38666V127.821H491.076V22.8346H471.128V6.38666H509.274Z" fill="black"/>
<path d="M538.145 116.273C529.309 107.437 524.847 96.5004 524.847 83.552C524.847 70.6036 529.309 59.6675 538.145 50.8311C546.981 41.9947 557.918 37.5328 570.866 37.5328C583.814 37.5328 594.75 41.9947 603.587 50.8311C612.423 59.6675 616.798 70.6036 616.798 83.552C616.798 96.5004 612.336 107.437 603.499 116.273C594.663 125.109 583.727 129.571 570.778 129.571C557.918 129.571 546.981 125.109 538.145 116.273ZM551.443 62.1172C546.456 67.454 544.007 74.6281 544.007 83.552C544.007 92.4759 546.456 99.5625 551.443 104.987C556.43 110.324 562.904 113.036 570.866 113.036C578.827 113.036 585.302 110.324 590.288 104.987C595.275 99.65 597.725 92.4759 597.725 83.552C597.725 74.6281 595.188 67.454 590.288 62.1172C585.389 56.7804 578.827 54.0682 570.866 54.0682C562.904 54.0682 556.43 56.7804 551.443 62.1172Z" fill="black"/>
<path d="M634.733 116.535C626.247 107.874 622.047 96.8504 622.047 83.552C622.047 70.2537 626.247 59.2301 634.733 50.5686C643.22 41.9072 653.718 37.5328 666.317 37.5328C680.402 37.5328 691.951 42.8696 700.875 53.6308C704.724 58.6176 707.349 63.9545 708.836 69.6413H689.764C688.976 66.7541 687.489 64.1295 685.214 61.8547C680.752 56.6054 674.366 54.0682 666.317 54.0682C659.143 54.0682 653.193 56.7804 648.381 62.2047C643.569 67.629 641.207 74.7156 641.207 83.552C641.207 92.3009 643.569 99.475 648.381 104.899C653.193 110.324 659.143 113.036 666.317 113.036C674.628 113.036 681.19 110.411 685.914 105.249C688.014 102.975 689.589 100.35 690.551 97.4628H708.749C707.261 103.325 704.549 108.749 700.787 113.561C692.038 124.234 680.49 129.571 666.229 129.571C653.718 129.571 643.132 125.197 634.733 116.535Z" fill="black"/>
<path d="M718.373 127.821V6.38666H736.57V74.1032H749.606L776.465 39.37H797.288L765.179 80.1399L799.912 127.821H777.34L750.481 90.5511H736.57V127.821H718.373Z" fill="black"/>
<path d="M807.349 116.535C798.862 107.874 794.663 96.8504 794.663 83.552C794.663 70.2537 798.862 59.2301 807.349 50.5686C815.835 41.9072 826.334 37.5328 838.932 37.5328C853.018 37.5328 864.567 42.8696 873.491 53.6308C877.34 58.6176 879.965 63.9545 881.452 69.6413H862.379C861.592 66.7541 860.105 64.1295 857.83 61.8547C853.368 56.6054 846.981 54.0682 838.932 54.0682C831.758 54.0682 825.809 56.7804 820.997 62.2047C816.185 67.629 813.823 74.7156 813.823 83.552C813.823 92.3009 816.185 99.475 820.997 104.899C825.809 110.324 831.758 113.036 838.932 113.036C847.244 113.036 853.806 110.411 858.53 105.249C860.63 102.975 862.205 100.35 863.167 97.4628H881.365C879.877 103.325 877.165 108.749 873.403 113.561C864.654 124.234 853.106 129.571 838.845 129.571C826.334 129.571 815.835 125.197 807.349 116.535Z" fill="black"/>
<path d="M890.989 127.821V6.38666H909.186V51.531H910.061C911.461 49.2563 913.561 46.8941 916.448 44.6194C922.66 39.9825 929.834 37.7077 937.795 37.7077C948.819 37.7077 957.305 40.8573 963.43 47.244C969.466 53.6308 972.528 62.9046 972.528 74.9781V127.909H954.331V76.6404C954.331 68.8539 952.581 63.1671 949.256 59.58C945.844 55.9055 940.595 54.1557 933.596 54.1557C926.509 54.1557 920.735 56.5179 916.185 61.3298C911.636 66.1417 909.361 72.4409 909.361 80.1399V127.821H890.989Z" fill="black"/>
<path d="M993.963 116.798C986.001 108.311 982.064 97.2003 982.064 83.552C982.064 69.9037 986.001 58.7926 993.963 50.3062C1001.92 41.8197 1011.81 37.5328 1023.71 37.5328C1031.23 37.5328 1038.15 39.72 1044.36 44.0945C1046.98 45.9317 1049.34 48.119 1051.44 50.4812H1052.32V39.2826H1070.52V127.821H1052.32V115.661H1051.44C1049.69 118.11 1047.33 120.385 1044.36 122.572C1038.15 127.209 1031.23 129.484 1023.71 129.484C1011.81 129.571 1001.92 125.284 993.963 116.798ZM1008.14 61.6798C1003.5 66.7541 1001.22 74.1032 1001.22 83.552C1001.22 93.0008 1003.5 100.35 1008.14 105.424C1012.77 110.499 1019.16 113.036 1027.21 113.036C1034.82 113.036 1040.94 110.411 1045.49 105.337C1050.04 100.175 1052.32 92.9134 1052.32 83.552C1052.32 74.1907 1050.04 66.9291 1045.49 61.7672C1040.94 56.6054 1034.82 54.0682 1027.21 54.0682C1019.16 54.0682 1012.77 56.6054 1008.14 61.6798Z" fill="black"/>
<path d="M1087.66 23.1846C1085.56 21.0848 1084.51 18.5477 1084.51 15.573C1084.51 12.5984 1085.56 9.97373 1087.66 7.874C1089.76 5.68677 1092.3 4.6369 1095.28 4.6369C1098.25 4.6369 1100.87 5.68677 1102.97 7.874C1105.16 10.0612 1106.21 12.5984 1106.21 15.573C1106.21 18.5477 1105.16 21.0848 1102.97 23.1846C1100.79 25.2843 1098.25 26.3342 1095.28 26.3342C1092.3 26.3342 1089.68 25.2843 1087.66 23.1846ZM1086.26 127.822V39.2826H1104.46V127.822H1086.26Z" fill="black"/>
<path d="M1120.03 127.822V39.2826H1138.23V51.4436H1139.11C1140.51 49.1689 1142.61 46.8067 1145.49 44.5319C1151.71 39.895 1158.88 37.6203 1166.84 37.6203C1177.86 37.6203 1186.35 40.7699 1192.48 47.1566C1198.51 53.5433 1201.57 62.8172 1201.57 74.8906V127.822H1183.38V76.6404C1183.38 68.8539 1181.63 63.1671 1178.3 59.5801C1174.89 55.9055 1169.64 54.1557 1162.64 54.1557C1155.56 54.1557 1149.78 56.5179 1145.23 61.3298C1140.68 66.1417 1138.41 72.4409 1138.41 80.14V127.822H1120.03Z" fill="black"/>
<path d="M369.554 194.488V175.416H469.291V194.488H429.396V296.85H409.449V194.488H369.554Z" fill="black"/>
<path d="M468.066 285.302C459.317 276.465 454.943 265.529 454.943 252.581C454.943 239.633 459.317 228.696 468.066 219.86C476.815 211.024 487.489 206.562 500.087 206.562C512.686 206.562 523.359 211.024 532.108 219.86C540.857 228.696 545.232 239.633 545.232 252.581V258.618H473.228C474.628 265.879 477.778 271.653 482.764 275.765C487.751 279.965 493.526 282.065 500.087 282.065C508.136 282.065 514.698 280.052 519.51 275.94C521.697 274.366 523.622 272.266 525.197 269.904H544.269C541.82 275.591 538.757 280.402 535.083 284.339C525.634 293.788 513.911 298.6 500 298.6C487.489 298.6 476.815 294.138 468.066 285.302ZM474.015 243.919H526.072C525.022 238.145 522.309 233.246 517.848 229.134C513.386 225.109 507.436 223.097 500.087 223.097C493.788 223.097 488.276 224.934 483.464 228.696C478.565 232.458 475.415 237.533 474.015 243.919Z" fill="black"/>
<path d="M636.308 296.85V208.311H654.506V220.472H655.38C656.78 218.198 658.88 215.835 661.767 213.561C667.979 208.924 675.153 206.649 683.114 206.649C694.138 206.649 702.625 209.799 708.749 216.185C714.786 222.572 717.848 231.846 717.848 243.919V296.85H699.65V245.669C699.65 237.883 697.9 232.196 694.576 228.609C691.163 224.934 685.914 223.185 678.915 223.185C671.828 223.185 666.054 225.547 661.505 230.359C656.955 235.171 654.681 241.47 654.681 249.169V296.85H636.308Z" fill="black"/>
<path d="M740.682 285.302C731.846 276.465 727.384 265.529 727.384 252.581C727.384 239.633 731.846 228.696 740.682 219.86C749.519 211.024 760.455 206.562 773.403 206.562C786.352 206.562 797.288 211.024 806.124 219.86C814.961 228.696 819.422 239.633 819.422 252.581C819.422 265.529 814.961 276.465 806.124 285.302C797.288 294.138 786.352 298.6 773.403 298.6C760.455 298.6 749.519 294.138 740.682 285.302ZM753.981 231.146C748.994 236.483 746.544 243.657 746.544 252.581C746.544 261.505 748.994 268.591 753.981 274.016C758.967 279.353 765.442 282.065 773.403 282.065C781.365 282.065 787.839 279.353 792.826 274.016C797.813 268.679 800.262 261.505 800.262 252.581C800.262 243.657 797.725 236.483 792.826 231.146C787.839 225.809 781.365 223.097 773.403 223.097C765.354 223.097 758.88 225.809 753.981 231.146Z" fill="black"/>
<path d="M596.85 250.744L626.772 208.224H604.549L584.864 236.133L565.092 208.224H542.87L572.791 250.744L540.157 296.85H562.467L584.864 265.354L607.174 296.85H629.484L596.85 250.744Z" fill="black"/>
</svg>
